# xmcd
#
# Track frame offsets:
#	150
#	20354
#	35299
#	54368
#	75585
#	91052
#	105431
#	120681
#	133637
#	151017
#	167426
#
# Disc length: 2482 seconds
#
# Revision: 0
# Processed by: cddbd v1.5.2PL0 Copyright (c) Steve Scherf et al.
# Submitted via: audiograbber 1.83.01
#
DISCID=6e09b00b
DTITLE=Libby Kock - Just Move On
DYEAR=2016
DGENRE=
TTITLE0=Just Move On
TTITLE1=You Don´t Live Here Anymore
TTITLE2=Out Of My Misery
TTITLE3=Don´t Know How
TTITLE4=Chance On Me
TTITLE5=I´ve Been Blind
TTITLE6=Tell Me No Lies
TTITLE7=Bring You Down
TTITLE8=Bad Luck
TTITLE9=Back To Houston
TTITLE10=Wish You Were Here
EXTD=
EXTT0=
EXTT1=
EXTT2=
EXTT3=
EXTT4=
EXTT5=
EXTT6=
EXTT7=
EXTT8=
EXTT9=
EXTT10=
PLAYORDER=
